<svg height="512" viewBox="0 0 512 512" width="512" xmlns="http://www.w3.org/2000/svg" xmlns:xlink="http://www.w3.org/1999/xlink"><linearGradient id="New_Gradient_Swatch_22" gradientUnits="userSpaceOnUse" x1="11.515" x2="460.485" y1="452.485" y2="3.515"><stop offset=".011" stop-color="#dcdce3"/><stop offset="1" stop-color="#ededf1"/></linearGradient><linearGradient id="New_Gradient_Swatch_3" gradientUnits="userSpaceOnUse" x1="96.757" x2="375.243" y1="196.757" y2="-81.728"><stop offset=".011" stop-color="#606082"/><stop offset="1" stop-color="#83839e"/></linearGradient><linearGradient id="New_Gradient_Swatch_12" gradientUnits="userSpaceOnUse" x1="75.515" x2="204.485" y1="412.485" y2="283.515"><stop offset=".011" stop-color="#80d1cb"/><stop offset="1" stop-color="#bfe8e5"/></linearGradient><linearGradient id="New_Gradient_Swatch_13" gradientUnits="userSpaceOnUse" x1="327.784" x2="481.216" y1="481.216" y2="327.784"><stop offset="0" stop-color="#d46669"/><stop offset="1" stop-color="#dd888a"/></linearGradient><g id="_05-search_optimizing" data-name="05-search optimizing"><g id="gradient"><rect fill="url(#New_Gradient_Swatch_22)" height="448" rx="12" width="464" x="4" y="4"/><path d="m456 4h-440a12 12 0 0 0 -12 12v88h464v-88a12 12 0 0 0 -12-12z" fill="url(#New_Gradient_Swatch_3)"/><circle cx="64" cy="52" fill="#d97779" r="12"/><circle cx="112" cy="52" fill="#f9cd55" r="12"/><circle cx="160" cy="52" fill="#80d1cb" r="12"/><g fill="#b8b8c7"><path d="m216 172h-144a12 12 0 0 1 0-24h144a12 12 0 0 1 0 24z"/><path d="m400 172h-128a12 12 0 0 1 0-24h128a12 12 0 0 1 0 24z"/><path d="m400 220h-328a12 12 0 0 1 0-24h328a12 12 0 0 1 0 24z"/><path d="m304 268h-232a12 12 0 0 1 0-24h232a12 12 0 0 1 0 24z"/></g><rect fill="url(#New_Gradient_Swatch_12)" height="112" rx="12" width="160" x="60" y="292"/><path d="m507.73 378.158-16.23-2.009-5.434-13.118 10.058-12.9a6 6 0 0 0 -.489-7.932l-28.835-28.831a6 6 0 0 0 -7.932-.489l-12.9 10.059-13.117-5.438-2.01-16.233a6 6 0 0 0 -5.954-5.263h-40.774a6 6 0 0 0 -5.954 5.263l-2.01 16.233-13.118 5.435-12.9-10.059a6 6 0 0 0 -7.932.489l-28.831 28.835a6 6 0 0 0 -.489 7.932l10.059 12.9-5.438 13.117-16.233 2.009a6 6 0 0 0 -5.263 5.955v40.774a6 6 0 0 0 5.263 5.955l16.233 2.009 5.435 13.118-10.059 12.9a6 6 0 0 0 .489 7.932l28.835 28.831a6 6 0 0 0 7.932.489l12.9-10.058 13.118 5.434 2.01 16.233a6 6 0 0 0 5.954 5.263h40.774a6 6 0 0 0 5.954-5.263l2.01-16.233 13.118-5.434 12.9 10.058a6 6 0 0 0 7.932-.489l28.83-28.832a6 6 0 0 0 .489-7.932l-10.058-12.9 5.434-13.118 16.233-2.009a6 6 0 0 0 5.263-5.955v-40.773a6 6 0 0 0 -5.263-5.955zm-81.341 48.23a30.94 30.94 0 1 1 0-43.776 30.99 30.99 0 0 1 0 43.776z" fill="url(#New_Gradient_Swatch_13)"/></g></g></svg>