<?xml version="1.0"?>
<svg xmlns="http://www.w3.org/2000/svg" xmlns:xlink="http://www.w3.org/1999/xlink" xmlns:svgjs="http://svgjs.com/svgjs" version="1.1" width="512" height="512" x="0" y="0" viewBox="0 0 512 512" style="enable-background:new 0 0 512 512" xml:space="preserve" class=""><g><path xmlns="http://www.w3.org/2000/svg" d="m512 46c0-24.853-20.147-45-45-45h-422c-24.853 0-45 20.147-45 45v90l10 10h492c3.905-3.905 6.095-6.095 10-10z" fill="#0052c2" data-original="#0052c2" style="" class=""/><path xmlns="http://www.w3.org/2000/svg" d="m512 46v90c-3.91 3.91-6.09 6.09-10 10h-246v-145h211c24.85 0 45 20.15 45 45z" fill="#0052c2" data-original="#003481" style="" class=""/><path xmlns="http://www.w3.org/2000/svg" d="m436 61h-90c-8.284 0-15 6.716-15 15s6.716 15 15 15h90c8.284 0 15-6.716 15-15s-6.716-15-15-15z" fill="#0052c2" data-original="#0052c2" style="" class=""/><circle xmlns="http://www.w3.org/2000/svg" cx="196" cy="76" fill="#ff1a1a" r="15" data-original="#f03800" style="" class=""/><circle xmlns="http://www.w3.org/2000/svg" cx="136" cy="76" fill="#fdbf00" r="15" data-original="#fdbf00" style="" class=""/><circle xmlns="http://www.w3.org/2000/svg" cx="76" cy="76" fill="#00f711" r="15" data-original="#37d742" style="" class=""/><path xmlns="http://www.w3.org/2000/svg" d="m0 136v330c0 24.813 20.187 45 45 45h422c24.813 0 45-20.187 45-45v-330z" fill="#ffffff" data-original="#e0f4ff" style="" class=""/><path xmlns="http://www.w3.org/2000/svg" d="m512 136v330c0 24.81-20.19 45-45 45h-211v-375z" fill="#ffffff" data-original="#b8e0f5" style="" class=""/><path xmlns="http://www.w3.org/2000/svg" d="m436 181h-360c-8.284 0-15 6.716-15 15v90c0 8.284 6.716 15 15 15h360c8.284 0 15-6.716 15-15v-90c0-8.284-6.716-15-15-15z" fill="#1aff28" data-original="#ff641a" style="" class=""/><path xmlns="http://www.w3.org/2000/svg" d="m451 196v90c0 8.28-6.72 15-15 15h-180v-120h180c8.28 0 15 6.72 15 15z" fill="#ff1a1a" data-original="#f03800" style="" class=""/><path xmlns="http://www.w3.org/2000/svg" d="m226 331h-150c-8.284 0-15 6.716-15 15v90c0 8.284 6.716 15 15 15h150c8.284 0 15-6.716 15-15v-90c0-8.284-6.716-15-15-15z" fill="#fdbf00" data-original="#fdbf00" style="" class=""/><path xmlns="http://www.w3.org/2000/svg" d="m436 331h-150c-8.284 0-15 6.716-15 15v90c0 8.284 6.716 15 15 15h150c8.284 0 15-6.716 15-15v-90c0-8.284-6.716-15-15-15z" fill="#fe9022" data-original="#fe9022" style="" class=""/></g></svg>
